<?xml version="1.0" encoding="UTF-8"?>
<svg version="1.1" xmlns="http://www.w3.org/2000/svg" width="1081" height="540">
<path d="M0 0 C57.02569593 0 57.02569593 0 67.078125 8.82421875 C76.32653451 18.71379951 76.19809128 30.26871828 76.25 43.1875 C76.270625 44.45142578 76.29125 45.71535156 76.3125 47.01757812 C76.35802856 58.01841757 75.07122253 68.18689274 68 77 C63.7 81 63.7 81 61 81 C61 81.66 61 82.32 61 83 C62.0828125 83.309375 62.0828125 83.309375 63.1875 83.625 C69.74456797 86.83067767 72.65847459 93.40011221 75 100 C76.30482139 104.92899409 76.18890086 109.88259703 76.24609375 114.9453125 C76.2790505 116.92969161 76.31226182 118.9140665 76.34570312 120.8984375 C76.39291578 124.00517715 76.43733359 127.11190203 76.47680664 130.21875 C76.51692182 133.23195246 76.5683817 136.24480755 76.62109375 139.2578125 C76.6295079 140.16967316 76.63792206 141.08153381 76.64659119 142.02102661 C76.77241653 148.70442699 77.77044894 154.23746916 79 161 C70.09 161 61.18 161 52 161 C49.75086126 150.87887567 49.75086126 150.87887567 49.72875977 147.05029297 C49.71857315 146.1926535 49.70838654 145.33501404 49.69789124 144.4513855 C49.69575119 143.55735016 49.69361115 142.66331482 49.69140625 141.7421875 C49.66626467 139.79817385 49.6408664 137.8541635 49.61523438 135.91015625 C49.58645637 132.88428481 49.56239787 129.8584703 49.54370117 126.83251953 C49.52199305 123.88546267 49.48257656 120.9390275 49.44140625 117.9921875 C49.44129044 117.0941037 49.44117462 116.1960199 49.4410553 115.27072144 C49.3437233 109.05859577 48.49758411 104.12198014 44.5 99.125 C39.30324066 95.2274305 32.06808363 96.43343455 26 96 C26 117.45 26 138.9 26 161 C17.42 161 8.84 161 0 161 C0 107.87 0 54.74 0 0 Z M26 24 C26 39.84 26 55.68 26 72 C38.0856526 72.96157612 38.0856526 72.96157612 47 68 C50.34840388 61.16862282 50.45476802 54.9578514 50.375 47.4375 C50.38660156 46.33986328 50.39820313 45.24222656 50.41015625 44.11132812 C50.38500874 37.15804267 49.9778369 31.72229613 45.5 26.125 C39.86816691 21.90112518 32.88483851 24 26 24 Z " fill="#534741" transform="translate(580,310)"/>
<path d="M0 0 C8.58 0 17.16 0 26 0 C26 22.77 26 45.54 26 69 C35.24 69 44.48 69 54 69 C54 46.23 54 23.46 54 0 C62.58 0 71.16 0 80 0 C80 53.13 80 106.26 80 161 C71.42 161 62.84 161 54 161 C54 138.23 54 115.46 54 92 C44.76 92 35.52 92 26 92 C26 114.77 26 137.54 26 161 C17.42 161 8.84 161 0 161 C0 107.87 0 54.74 0 0 Z " fill="#534741" transform="translate(850,310)"/>
<path d="M0 0 C8.58 0 17.16 0 26 0 C26 22.77 26 45.54 26 69 C35.24 69 44.48 69 54 69 C54 46.23 54 23.46 54 0 C62.58 0 71.16 0 80 0 C80 53.13 80 106.26 80 161 C71.42 161 62.84 161 54 161 C54 138.23 54 115.46 54 92 C44.76 92 35.52 92 26 92 C26 114.77 26 137.54 26 161 C17.42 161 8.84 161 0 161 C0 107.87 0 54.74 0 0 Z " fill="#534741" transform="translate(301,310)"/>
<path d="M0 0 C8.58 0 17.16 0 26 0 C26.0093457 3.90666504 26.01869141 7.81333008 26.02832031 11.83837891 C26.0620708 24.73862318 26.11740779 37.63869883 26.18390274 50.53881264 C26.22369498 58.36100224 26.25608648 66.18309122 26.27099609 74.00537109 C26.28401172 80.82409105 26.31097388 87.6425896 26.35461307 94.46118486 C26.37723019 98.07090512 26.39291055 101.68035229 26.39188385 105.29014969 C26.39099857 109.32216411 26.42125245 113.35337316 26.45410156 117.38525391 C26.4490712 118.57927826 26.44404083 119.77330261 26.43885803 121.00350952 C26.5179365 127.2676232 26.6870134 131.28793123 31 136 C34.70622355 138.36786504 37.94070524 138.16813038 42.13671875 137.46484375 C44.80997947 136.79792965 46.18226946 136.09738139 48 134 C50.44101969 127.59324446 50.306224 121.33979344 50.31884766 114.54711914 C50.33391609 112.68753067 50.33391609 112.68753067 50.34928894 110.79037476 C50.37479798 107.40862936 50.39170331 104.02705012 50.40471697 100.6452477 C50.42039897 97.10446914 50.4471729 93.56377446 50.4727478 90.02305603 C50.51944617 83.32616141 50.5562334 76.62925086 50.58942068 69.93227714 C50.62770544 62.30463846 50.67709886 54.6770842 50.72740483 47.0495168 C50.83059164 31.36639952 50.91842868 15.68324687 51 0 C58.92 0 66.84 0 75 0 C75.09281915 17.26415105 75.16409224 34.52820158 75.20724869 51.79254532 C75.22782461 59.80970027 75.25584939 67.82669678 75.30175781 75.84375 C75.34177862 82.83600851 75.36746889 89.8281522 75.37635398 96.82052207 C75.38154312 100.5188213 75.39363391 104.21679224 75.42292023 107.91498566 C75.45544181 112.05577304 75.45594972 116.19599918 75.45410156 120.33691406 C75.46848267 121.54676971 75.48286377 122.75662537 75.49768066 124.00314331 C75.44529703 134.90152968 73.14218828 144.62422117 65.9921875 153.09375 C57.76434218 160.96666866 46.45539325 163.33610836 35.3828125 163.1484375 C24.64256776 162.47937307 14.85394944 158.92868492 7.46484375 150.87890625 C0.05792337 141.37829637 -0.29648907 130.46807392 -0.22705078 118.86108398 C-0.22734283 117.57229843 -0.22763489 116.28351288 -0.22793579 114.95567322 C-0.2285059 111.44799663 -0.2168075 107.94045889 -0.20278788 104.43281436 C-0.19022303 100.75730529 -0.18910551 97.08179249 -0.18673706 93.40626526 C-0.18053911 86.45792175 -0.16415128 79.50964173 -0.14403808 72.56132609 C-0.12162641 64.64592022 -0.11067244 56.73051121 -0.10064721 48.81508148 C-0.07978342 32.54334471 -0.04312844 16.27169531 0 0 Z " fill="#534741" transform="translate(443,310)"/>
<path d="M0 0 C8.4183847 8.10723291 11.45443042 19.2149418 11.75585938 30.57666016 C11.84434689 36.72338245 11.76634981 42.84971459 11.6875 49 C3.4375 49 -4.8125 49 -13.3125 49 C-13.625 37.875 -13.625 37.875 -13.70043945 34.40185547 C-13.89706743 28.94507028 -14.13593438 24.65030881 -17.3125 20 C-20.68045125 17.57194212 -23.29162809 16.74575231 -27.375 17 C-31.58185799 17.72532034 -33.67013557 19.63699073 -36.3125 23 C-37.64791583 27.0062475 -37.46830081 30.86415046 -37.47363281 35.04199219 C-37.47859772 35.96752899 -37.48356262 36.8930658 -37.48867798 37.84664917 C-37.50330134 40.91339864 -37.51010242 43.98009636 -37.515625 47.046875 C-37.52137694 49.17816164 -37.52713467 51.30944826 -37.53289795 53.44073486 C-37.54340887 57.91296632 -37.54925073 62.3851798 -37.55273438 66.85742188 C-37.55821488 72.58171217 -37.58223319 78.3057641 -37.61070633 84.02997971 C-37.62935272 88.43439421 -37.63453941 92.83875157 -37.63607025 97.24320221 C-37.63909351 99.35307364 -37.64711096 101.46294414 -37.66025543 103.57277679 C-37.67735516 106.52884407 -37.67542581 109.48433269 -37.66894531 112.44042969 C-37.6781601 113.30822052 -37.68737488 114.17601135 -37.6968689 115.07009888 C-37.65998512 120.45479731 -36.92400072 124.25205182 -34.3125 129 C-29.86097103 131.96768598 -25.53106114 131.75531806 -20.3125 131 C-16.63676617 128.35347164 -15.10031068 126.37428417 -14.3125 122 C-14.1652204 119.8305592 -14.0652453 117.65770947 -13.99609375 115.484375 C-13.93325195 113.60878906 -13.93325195 113.60878906 -13.86914062 111.6953125 C-13.82982422 110.39335937 -13.79050781 109.09140625 -13.75 107.75 C-13.68522461 105.77386719 -13.68522461 105.77386719 -13.61914062 103.7578125 C-13.51308146 100.50533146 -13.41228847 97.25267947 -13.3125 94 C-5.0625 94 3.1875 94 11.6875 94 C11.74198945 98.25017681 11.78141063 102.4996387 11.8125 106.75 C11.82925781 107.93722656 11.84601563 109.12445313 11.86328125 110.34765625 C11.93720531 123.8757585 10.09042703 134.19523003 3 145.75 C-6.33199848 154.8297823 -16.92916254 156.42158609 -29.38964844 156.36132812 C-40.00825318 156.14636161 -47.60721682 153.75563083 -55.37109375 146.26953125 C-63.07740469 137.26074522 -64.61895296 126.36058477 -64.5871582 114.8972168 C-64.59226913 113.93006744 -64.59738007 112.96291809 -64.60264587 111.96646118 C-64.61645711 108.7939827 -64.61559131 105.62172358 -64.61328125 102.44921875 C-64.61717316 100.22638367 -64.62150884 98.00354933 -64.62626648 95.78071594 C-64.63371076 91.12990912 -64.63345065 86.47917822 -64.62817383 81.82836914 C-64.62238527 75.89397841 -64.63930437 69.95990041 -64.6625185 64.02556133 C-64.67731345 59.4365103 -64.67811965 54.84753356 -64.67500877 50.25846291 C-64.67551921 48.07178949 -64.68070428 45.88511161 -64.69082069 43.69846153 C-64.8128054 13.64319928 -64.8128054 13.64319928 -53.75390625 1.25390625 C-40.28082398 -11.70222323 -14.31935466 -11.07723662 0 0 Z " fill="#534741" transform="translate(779.3125,316)"/>
<path d="M0 0 C7.93068438 9.5829103 8.42752377 20.67304732 8.1875 32.625 C8.16719727 34.56052734 8.16719727 34.56052734 8.14648438 36.53515625 C8.11142736 39.69028724 8.05763165 42.84520062 8 46 C0.08 46 -7.84 46 -16 46 C-16.3125 35.4375 -16.3125 35.4375 -16.38793945 32.15014648 C-16.60522482 26.40292203 -17.18427284 22.05473913 -20 17 C-23.52673812 14.31296143 -26.3022838 13.77248862 -30.625 14 C-34.06488741 14.52119506 -34.86844994 14.87502745 -37.5 17.375 C-39.39994068 20.69989618 -40.12453069 23.23322214 -40.14044189 27.00288391 C-40.14615204 27.81450989 -40.15186218 28.62613586 -40.15774536 29.46235657 C-40.15942215 30.79257088 -40.15942215 30.79257088 -40.16113281 32.1496582 C-40.16609772 33.08655487 -40.17106262 34.02345154 -40.17617798 34.98873901 C-40.19080051 38.09276053 -40.19760187 41.19673093 -40.203125 44.30078125 C-40.20887649 46.45688376 -40.21463423 48.61298626 -40.22039795 50.76908875 C-40.23090828 55.29259479 -40.2367507 59.81608307 -40.24023438 64.33959961 C-40.24571832 70.13348923 -40.26974423 75.92714376 -40.29820633 81.72095966 C-40.31683812 86.17594589 -40.32203861 90.63087555 -40.32357025 95.08589745 C-40.32659621 97.22171501 -40.33462281 99.35753159 -40.34775543 101.49331093 C-40.36482652 104.48310814 -40.36293292 107.47233191 -40.35644531 110.4621582 C-40.3656601 111.34289505 -40.37487488 112.2236319 -40.3843689 113.13105774 C-40.35025634 118.15430151 -39.84696352 121.67646698 -37 126 C-33.77252945 128.15164703 -32.79494361 128.27245079 -29.0625 128.25 C-28.20785156 128.25515625 -27.35320312 128.2603125 -26.47265625 128.265625 C-23.62110785 127.95929753 -22.26228947 127.79471816 -20 126 C-16.30592537 118.96688766 -16.45685608 111.81172639 -16.3125 104 C-16.27833984 102.74832031 -16.24417969 101.49664062 -16.20898438 100.20703125 C-16.12699605 97.1383254 -16.06180985 94.06917859 -16 91 C-8.08 91 -0.16 91 8 91 C8.0926747 95.62343763 8.17204058 100.2435551 8.21972656 104.8671875 C8.23963732 106.43435686 8.26677635 108.00145397 8.30175781 109.56835938 C8.55761251 121.33767534 8.46206403 133.29592076 -0.125 142.4375 C-7.58088814 150.10289244 -15.80515098 153.07825914 -26.26074219 153.29296875 C-38.98240454 153.38165235 -48.50506329 152.46806968 -58.05859375 143.2734375 C-65.56035557 134.48867819 -67.30161243 124.02066398 -67.29052734 112.84301758 C-67.29724457 111.8581134 -67.30396179 110.87320923 -67.31088257 109.85845947 C-67.32979269 106.62043126 -67.3337835 103.38261117 -67.3359375 100.14453125 C-67.34237114 97.87782203 -67.34909992 95.61111364 -67.35610962 93.34440613 C-67.36806558 88.5976672 -67.37179226 83.85100096 -67.37060547 79.10424805 C-67.37040258 73.04990716 -67.39768152 66.99603724 -67.43214989 60.94180775 C-67.45449307 56.2600647 -67.45844071 51.57843357 -67.45738602 46.89664268 C-67.4597317 44.66612821 -67.46849636 42.43561017 -67.48405075 40.2051487 C-67.67419711 10.11799324 -67.67419711 10.11799324 -57.3203125 -0.765625 C-42.02984411 -15.38061085 -15.14061995 -14.59988353 0 0 Z " fill="#534741" transform="translate(233,319)"/>
<path d="M0 0 C22.18874283 18.32065771 36.3635921 42.90295301 39.53564453 71.57983398 C42.45979854 102.3368951 32.90308566 129.47509642 13.71484375 153.05859375 C-3.36659621 172.85137339 -29.57352018 186.10235476 -55.72265625 188.16015625 C-86.74925312 189.38419009 -114.9633008 180.77293077 -137.97265625 159.53125 C-156.92407871 141.57426648 -169.35625909 116.86392694 -170.37109375 90.5703125 C-170.83731322 63.48464618 -165.85632853 38.51902452 -148 17.25 C-147.29101562 16.40308594 -146.58203125 15.55617187 -145.8515625 14.68359375 C-108.73141079 -27.97201918 -44.83488842 -34.54260272 0 0 Z M-136.52734375 21.96875 C-152.55651348 40.60094729 -160.45754412 64.39057268 -159.19091797 88.89794922 C-157.31644523 111.99087809 -147.94751053 131.57760263 -132 148.25 C-131.07960938 149.28253906 -131.07960938 149.28253906 -130.140625 150.3359375 C-116.35500734 165.24090018 -93.81739208 175.2783852 -73.72119141 176.37426758 C-45.03195329 177.28976095 -20.72531064 169.37436035 0.54248047 149.66455078 C17.86516271 132.85255398 27.62043467 109.60210777 28.40258789 85.63232422 C28.74384546 59.29105808 19.21068641 36.24254057 1 17.25 C0.12021484 16.29287109 0.12021484 16.29287109 -0.77734375 15.31640625 C-16.23664956 -1.01589565 -39.50503109 -9.59152393 -61.5546875 -10.97265625 C-91.32901601 -11.69655641 -116.49807648 0.42258305 -136.52734375 21.96875 Z " fill="#534741" transform="translate(890,68.75)"/>
<path d="M0 0 C25.41 0 50.82 0 77 0 C77 7.92 77 15.84 77 24 C61.49 24 45.98 24 30 24 C30 39.84 30 55.68 30 72 C42.21 72 54.42 72 67 72 C67 80.25 67 88.5 67 97 C54.79 97 42.58 97 30 97 C30 119.11 30 141.22 30 164 C20.1 164 10.2 164 0 164 C0 109.88 0 55.76 0 0 Z " fill="#534741" transform="translate(423,77)"/>
<path d="M0 0 C29.37 0 58.74 0 89 0 C89 7.92 89 15.84 89 24 C79.1 24 69.2 24 59 24 C59 70.2 59 116.4 59 164 C49.43 164 39.86 164 30 164 C30 117.8 30 71.6 30 24 C20.1 24 10.2 24 0 24 C0 16.08 0 8.16 0 0 Z " fill="#534741" transform="translate(558,77)"/>
<path d="M0 0 C9.57 0 19.14 0 29 0 C29 46.2 29 92.4 29 140 C44.51 140 60.02 140 76 140 C76 147.92 76 155.84 76 164 C50.92 164 25.84 164 0 164 C0 109.88 0 55.76 0 0 Z " fill="#534741" transform="translate(166,77)"/>
<path d="M0 0 C-3.16440537 17.34245635 -6.43266481 34.66115953 -9.91210938 51.94335938 C-10.39578904 54.35645709 -10.87446643 56.77056182 -11.34863281 59.18554688 C-12.04697497 62.74057148 -12.76002452 66.29235425 -13.4765625 69.84375 C-13.68600494 70.92474976 -13.89544739 72.00574951 -14.11123657 73.11950684 C-14.31509979 74.11325317 -14.51896301 75.10699951 -14.72900391 76.13085938 C-14.98951035 77.43766663 -14.98951035 77.43766663 -15.25527954 78.77087402 C-16.07691457 81.23022364 -17.03617309 82.34705926 -19 84 C-23.04120217 82.68425976 -25.00276872 81.24866207 -27.55078125 77.8671875 C-28.16630859 77.06152344 -28.78183594 76.25585938 -29.41601562 75.42578125 C-30.04185547 74.58402344 -30.66769531 73.74226563 -31.3125 72.875 C-32.28026367 71.60076172 -32.28026367 71.60076172 -33.26757812 70.30078125 C-34.85500754 68.20772617 -36.43188496 66.10754153 -38 64 C-41.02773742 66.33891431 -43.72664082 68.63350823 -46.1875 71.5625 C-49.06704237 74.93137637 -52.00991559 78.22860264 -55 81.5 C-57.84524228 84.61907011 -60.6719958 87.74755391 -63.4375 90.9375 C-66.86700919 94.88589474 -70.40876823 98.72857458 -73.95068359 102.57568359 C-77.07786651 105.97806721 -80.14443874 109.42362142 -83.16796875 112.91796875 C-86.37210975 116.55934861 -89.6732047 120.11383833 -92.9609375 123.6796875 C-95.01577328 125.81946882 -95.01577328 125.81946882 -96 128 C-100.22507066 127.48305018 -102.41077818 125.08781408 -105.4375 122.25 C-106.36433594 121.38890625 -107.29117188 120.5278125 -108.24609375 119.640625 C-110.86777593 117.12678506 -113.44350942 114.57968922 -116 112 C-115.43152344 111.3709375 -114.86304688 110.741875 -114.27734375 110.09375 C-108.53704376 103.730546 -102.83839928 97.33989586 -97.28515625 90.8125 C-92.38425311 85.05734779 -87.45811613 79.35099456 -82.3125 73.8125 C-78.0799435 69.25494094 -74.10780246 64.5339528 -70.21484375 59.68359375 C-67.1668388 55.99050839 -63.92386338 52.49130703 -60.65234375 48.99609375 C-58.78744658 47.17510415 -58.78744658 47.17510415 -59 45 C-59.55985596 44.70754395 -60.11971191 44.41508789 -60.6965332 44.11376953 C-63.23610065 42.78591523 -65.77431114 41.45548744 -68.3125 40.125 C-69.19357422 39.66480469 -70.07464844 39.20460937 -70.98242188 38.73046875 C-72.25375977 38.06337891 -72.25375977 38.06337891 -73.55078125 37.3828125 C-74.33106689 36.97434082 -75.11135254 36.56586914 -75.9152832 36.14501953 C-78 35 -78 35 -81 33 C-81.1875 30.375 -81.1875 30.375 -81 28 C-75.14959259 25.29786582 -69.28121431 22.94355059 -63.171875 20.8984375 C-62.35209671 20.62006042 -61.53231842 20.34168335 -60.68769836 20.05487061 C-58.04310176 19.15767884 -55.39659958 18.26626386 -52.75 17.375 C-49.99793978 16.44350511 -47.24633743 15.51066658 -44.49476624 14.57772827 C-42.65308576 13.95339431 -40.81123811 13.3295533 -38.96922302 12.70620728 C-33.28018807 10.77963721 -27.5990676 8.8318224 -21.92578125 6.859375 C-21.24379669 6.62251984 -20.56181213 6.38566467 -19.85916138 6.14163208 C-16.70725022 5.04638956 -13.55656011 3.94786021 -10.40722656 2.84521484 C-9.31506836 2.46574707 -8.22291016 2.0862793 -7.09765625 1.6953125 C-6.15414307 1.36547363 -5.21062988 1.03563477 -4.23852539 0.69580078 C-2 0 -2 0 0 0 Z " fill="#534741" transform="translate(878,90)"/>
<path d="M0 0 C9.57 0 19.14 0 29 0 C29 54.12 29 108.24 29 164 C19.43 164 9.86 164 0 164 C0 109.88 0 55.76 0 0 Z " fill="#534741" transform="translate(321,77)"/>
</svg>
